<svg id="visual" viewBox="0 0 540 960" width="540" height="960" xmlns="http://www.w3.org/2000/svg" xmlns:xlink="http://www.w3.org/1999/xlink" version="1.1"><rect x="0" y="0" width="540" height="960" fill="#010c14"></rect><defs><linearGradient id="grad1_0" x1="0%" y1="100%" x2="100%" y2="0%"><stop offset="30%" stop-color="#fbae3c" stop-opacity="1"></stop><stop offset="70%" stop-color="#fbae3c" stop-opacity="1"></stop></linearGradient></defs><defs><linearGradient id="grad1_1" x1="0%" y1="100%" x2="100%" y2="0%"><stop offset="30%" stop-color="#fbae3c" stop-opacity="1"></stop><stop offset="70%" stop-color="#f38252" stop-opacity="1"></stop></linearGradient></defs><defs><linearGradient id="grad1_2" x1="0%" y1="100%" x2="100%" y2="0%"><stop offset="30%" stop-color="#d56066" stop-opacity="1"></stop><stop offset="70%" stop-color="#f38252" stop-opacity="1"></stop></linearGradient></defs><defs><linearGradient id="grad1_3" x1="0%" y1="100%" x2="100%" y2="0%"><stop offset="30%" stop-color="#d56066" stop-opacity="1"></stop><stop offset="70%" stop-color="#a84c6f" stop-opacity="1"></stop></linearGradient></defs><defs><linearGradient id="grad1_4" x1="0%" y1="100%" x2="100%" y2="0%"><stop offset="30%" stop-color="#72406a" stop-opacity="1"></stop><stop offset="70%" stop-color="#a84c6f" stop-opacity="1"></stop></linearGradient></defs><defs><linearGradient id="grad1_5" x1="0%" y1="100%" x2="100%" y2="0%"><stop offset="30%" stop-color="#72406a" stop-opacity="1"></stop><stop offset="70%" stop-color="#3f3356" stop-opacity="1"></stop></linearGradient></defs><defs><linearGradient id="grad1_6" x1="0%" y1="100%" x2="100%" y2="0%"><stop offset="30%" stop-color="#192236" stop-opacity="1"></stop><stop offset="70%" stop-color="#3f3356" stop-opacity="1"></stop></linearGradient></defs><defs><linearGradient id="grad1_7" x1="0%" y1="100%" x2="100%" y2="0%"><stop offset="30%" stop-color="#192236" stop-opacity="1"></stop><stop offset="70%" stop-color="#010c14" stop-opacity="1"></stop></linearGradient></defs><defs><linearGradient id="grad2_0" x1="0%" y1="100%" x2="100%" y2="0%"><stop offset="30%" stop-color="#fbae3c" stop-opacity="1"></stop><stop offset="70%" stop-color="#fbae3c" stop-opacity="1"></stop></linearGradient></defs><defs><linearGradient id="grad2_1" x1="0%" y1="100%" x2="100%" y2="0%"><stop offset="30%" stop-color="#f38252" stop-opacity="1"></stop><stop offset="70%" stop-color="#fbae3c" stop-opacity="1"></stop></linearGradient></defs><defs><linearGradient id="grad2_2" x1="0%" y1="100%" x2="100%" y2="0%"><stop offset="30%" stop-color="#f38252" stop-opacity="1"></stop><stop offset="70%" stop-color="#d56066" stop-opacity="1"></stop></linearGradient></defs><defs><linearGradient id="grad2_3" x1="0%" y1="100%" x2="100%" y2="0%"><stop offset="30%" stop-color="#a84c6f" stop-opacity="1"></stop><stop offset="70%" stop-color="#d56066" stop-opacity="1"></stop></linearGradient></defs><defs><linearGradient id="grad2_4" x1="0%" y1="100%" x2="100%" y2="0%"><stop offset="30%" stop-color="#a84c6f" stop-opacity="1"></stop><stop offset="70%" stop-color="#72406a" stop-opacity="1"></stop></linearGradient></defs><defs><linearGradient id="grad2_5" x1="0%" y1="100%" x2="100%" y2="0%"><stop offset="30%" stop-color="#3f3356" stop-opacity="1"></stop><stop offset="70%" stop-color="#72406a" stop-opacity="1"></stop></linearGradient></defs><defs><linearGradient id="grad2_6" x1="0%" y1="100%" x2="100%" y2="0%"><stop offset="30%" stop-color="#3f3356" stop-opacity="1"></stop><stop offset="70%" stop-color="#192236" stop-opacity="1"></stop></linearGradient></defs><defs><linearGradient id="grad2_7" x1="0%" y1="100%" x2="100%" y2="0%"><stop offset="30%" stop-color="#010c14" stop-opacity="1"></stop><stop offset="70%" stop-color="#192236" stop-opacity="1"></stop></linearGradient></defs><g transform="translate(540, 960)"><path d="M-486 0C-452.2 -56.3 -418.4 -112.6 -388 -160.7C-357.7 -208.8 -330.8 -248.7 -300.5 -300.5C-270.3 -352.3 -236.6 -416.1 -186 -449C-135.3 -481.9 -67.7 -484 0 -486L0 0Z" fill="#0e1925"></path><path d="M-425.2 0C-395.7 -49.3 -366.1 -98.6 -339.5 -140.6C-313 -182.7 -289.4 -217.6 -263 -263C-236.5 -308.3 -207.1 -364.1 -162.7 -392.9C-118.4 -421.7 -59.2 -423.5 0 -425.2L0 0Z" fill="#2a2b47"></path><path d="M-364.5 0C-339.1 -42.2 -313.8 -84.5 -291 -120.5C-268.3 -156.6 -248.1 -186.5 -225.4 -225.4C-202.7 -264.3 -177.5 -312.1 -139.5 -336.8C-101.5 -361.4 -50.8 -363 0 -364.5L0 0Z" fill="#583a62"></path><path d="M-303.7 0C-282.6 -35.2 -261.5 -70.4 -242.5 -100.5C-223.5 -130.5 -206.7 -155.4 -187.8 -187.8C-168.9 -220.2 -147.9 -260.1 -116.2 -280.6C-84.6 -301.2 -42.3 -302.5 0 -303.7L0 0Z" fill="#8d456f"></path><path d="M-243 0C-226.1 -28.2 -209.2 -56.3 -194 -80.4C-178.8 -104.4 -165.4 -124.4 -150.3 -150.3C-135.1 -176.2 -118.3 -208.1 -93 -224.5C-67.7 -241 -33.8 -242 0 -243L0 0Z" fill="#c0546c"></path><path d="M-182.2 0C-169.6 -21.1 -156.9 -42.2 -145.5 -60.3C-134.1 -78.3 -124 -93.3 -112.7 -112.7C-101.3 -132.1 -88.7 -156 -69.7 -168.4C-50.8 -180.7 -25.4 -181.5 0 -182.2L0 0Z" fill="#e76f5d"></path><path d="M-121.5 0C-113 -14.1 -104.6 -28.2 -97 -40.2C-89.4 -52.2 -82.7 -62.2 -75.1 -75.1C-67.6 -88.1 -59.2 -104 -46.5 -112.3C-33.8 -120.5 -16.9 -121 0 -121.5L0 0Z" fill="#fa9747"></path><path d="M-60.7 0C-56.5 -7 -52.3 -14.1 -48.5 -20.1C-44.7 -26.1 -41.3 -31.1 -37.6 -37.6C-33.8 -44 -29.6 -52 -23.2 -56.1C-16.9 -60.2 -8.5 -60.5 0 -60.7L0 0Z" fill="#fbae3c"></path></g><g transform="translate(0, 0)"><path d="M486 0C462.8 56.9 439.5 113.8 419.4 173.7C399.4 233.7 382.4 296.7 343.7 343.7C304.9 390.6 244.2 421.5 183.3 442.5C122.4 463.6 61.2 474.8 0 486L0 0Z" fill="#0e1925"></path><path d="M425.3 0C404.9 49.8 384.6 99.6 367 152C349.4 204.5 334.6 259.6 300.7 300.7C266.8 341.8 213.7 368.8 160.4 387.2C107.1 405.6 53.5 415.4 0 425.3L0 0Z" fill="#2a2b47"></path><path d="M364.5 0C347.1 42.7 329.6 85.3 314.6 130.3C299.5 175.3 286.8 222.5 257.7 257.7C228.7 293 183.2 316.1 137.5 331.9C91.8 347.7 45.9 356.1 0 364.5L0 0Z" fill="#583a62"></path><path d="M303.8 0C289.2 35.6 274.7 71.1 262.2 108.6C249.6 146.1 239 185.4 214.8 214.8C190.5 244.1 152.6 263.4 114.6 276.6C76.5 289.7 38.2 296.7 0 303.8L0 0Z" fill="#8d456f"></path><path d="M243 0C231.4 28.4 219.8 56.9 209.7 86.9C199.7 116.8 191.2 148.4 171.8 171.8C152.4 195.3 122.1 210.7 91.7 221.3C61.2 231.8 30.6 237.4 0 243L0 0Z" fill="#c0546c"></path><path d="M182.3 0C173.5 21.3 164.8 42.7 157.3 65.2C149.8 87.6 143.4 111.3 128.9 128.9C114.3 146.5 91.6 158.1 68.7 166C45.9 173.8 22.9 178 0 182.3L0 0Z" fill="#e76f5d"></path><path d="M121.5 0C115.7 14.2 109.9 28.4 104.9 43.4C99.8 58.4 95.6 74.2 85.9 85.9C76.2 97.7 61.1 105.4 45.8 110.6C30.6 115.9 15.3 118.7 0 121.5L0 0Z" fill="#fa9747"></path><path d="M60.8 0C57.8 7.1 54.9 14.2 52.4 21.7C49.9 29.2 47.8 37.1 43 43C38.1 48.8 30.5 52.7 22.9 55.3C15.3 57.9 7.6 59.3 0 60.8L0 0Z" fill="#fbae3c"></path></g></svg>