<svg id="visual" viewBox="0 0 540 960" width="540" height="960" xmlns="http://www.w3.org/2000/svg" xmlns:xlink="http://www.w3.org/1999/xlink" version="1.1"><rect x="0" y="0" width="540" height="960" fill="#010c14"></rect><defs><linearGradient id="grad1_0" x1="0%" y1="0%" x2="100%" y2="100%"><stop offset="30%" stop-color="#fbae3c" stop-opacity="1"></stop><stop offset="70%" stop-color="#fbae3c" stop-opacity="1"></stop></linearGradient></defs><defs><linearGradient id="grad1_1" x1="0%" y1="0%" x2="100%" y2="100%"><stop offset="30%" stop-color="#fbae3c" stop-opacity="1"></stop><stop offset="70%" stop-color="#f38252" stop-opacity="1"></stop></linearGradient></defs><defs><linearGradient id="grad1_2" x1="0%" y1="0%" x2="100%" y2="100%"><stop offset="30%" stop-color="#d56066" stop-opacity="1"></stop><stop offset="70%" stop-color="#f38252" stop-opacity="1"></stop></linearGradient></defs><defs><linearGradient id="grad1_3" x1="0%" y1="0%" x2="100%" y2="100%"><stop offset="30%" stop-color="#d56066" stop-opacity="1"></stop><stop offset="70%" stop-color="#a84c6f" stop-opacity="1"></stop></linearGradient></defs><defs><linearGradient id="grad1_4" x1="0%" y1="0%" x2="100%" y2="100%"><stop offset="30%" stop-color="#72406a" stop-opacity="1"></stop><stop offset="70%" stop-color="#a84c6f" stop-opacity="1"></stop></linearGradient></defs><defs><linearGradient id="grad1_5" x1="0%" y1="0%" x2="100%" y2="100%"><stop offset="30%" stop-color="#72406a" stop-opacity="1"></stop><stop offset="70%" stop-color="#3f3356" stop-opacity="1"></stop></linearGradient></defs><defs><linearGradient id="grad1_6" x1="0%" y1="0%" x2="100%" y2="100%"><stop offset="30%" stop-color="#192236" stop-opacity="1"></stop><stop offset="70%" stop-color="#3f3356" stop-opacity="1"></stop></linearGradient></defs><defs><linearGradient id="grad1_7" x1="0%" y1="0%" x2="100%" y2="100%"><stop offset="30%" stop-color="#192236" stop-opacity="1"></stop><stop offset="70%" stop-color="#010c14" stop-opacity="1"></stop></linearGradient></defs><defs><linearGradient id="grad2_0" x1="0%" y1="0%" x2="100%" y2="100%"><stop offset="30%" stop-color="#fbae3c" stop-opacity="1"></stop><stop offset="70%" stop-color="#fbae3c" stop-opacity="1"></stop></linearGradient></defs><defs><linearGradient id="grad2_1" x1="0%" y1="0%" x2="100%" y2="100%"><stop offset="30%" stop-color="#f38252" stop-opacity="1"></stop><stop offset="70%" stop-color="#fbae3c" stop-opacity="1"></stop></linearGradient></defs><defs><linearGradient id="grad2_2" x1="0%" y1="0%" x2="100%" y2="100%"><stop offset="30%" stop-color="#f38252" stop-opacity="1"></stop><stop offset="70%" stop-color="#d56066" stop-opacity="1"></stop></linearGradient></defs><defs><linearGradient id="grad2_3" x1="0%" y1="0%" x2="100%" y2="100%"><stop offset="30%" stop-color="#a84c6f" stop-opacity="1"></stop><stop offset="70%" stop-color="#d56066" stop-opacity="1"></stop></linearGradient></defs><defs><linearGradient id="grad2_4" x1="0%" y1="0%" x2="100%" y2="100%"><stop offset="30%" stop-color="#a84c6f" stop-opacity="1"></stop><stop offset="70%" stop-color="#72406a" stop-opacity="1"></stop></linearGradient></defs><defs><linearGradient id="grad2_5" x1="0%" y1="0%" x2="100%" y2="100%"><stop offset="30%" stop-color="#3f3356" stop-opacity="1"></stop><stop offset="70%" stop-color="#72406a" stop-opacity="1"></stop></linearGradient></defs><defs><linearGradient id="grad2_6" x1="0%" y1="0%" x2="100%" y2="100%"><stop offset="30%" stop-color="#3f3356" stop-opacity="1"></stop><stop offset="70%" stop-color="#192236" stop-opacity="1"></stop></linearGradient></defs><defs><linearGradient id="grad2_7" x1="0%" y1="0%" x2="100%" y2="100%"><stop offset="30%" stop-color="#010c14" stop-opacity="1"></stop><stop offset="70%" stop-color="#192236" stop-opacity="1"></stop></linearGradient></defs><g transform="translate(540, 0)"><path d="M0 486C-56.3 452.2 -112.6 418.4 -160.7 388C-208.8 357.7 -248.7 330.8 -300.5 300.5C-352.3 270.3 -416.1 236.6 -449 186C-481.9 135.3 -484 67.7 -486 0L0 0Z" fill="#0e1925"></path><path d="M0 425.3C-49.3 395.7 -98.6 366.1 -140.6 339.5C-182.7 313 -217.6 289.4 -263 263C-308.3 236.5 -364.1 207.1 -392.9 162.7C-421.7 118.4 -423.5 59.2 -425.2 0L0 0Z" fill="#2a2b47"></path><path d="M0 364.5C-42.2 339.1 -84.5 313.8 -120.5 291C-156.6 268.3 -186.5 248.1 -225.4 225.4C-264.3 202.7 -312.1 177.5 -336.8 139.5C-361.4 101.5 -363 50.8 -364.5 0L0 0Z" fill="#583a62"></path><path d="M0 303.8C-35.2 282.6 -70.4 261.5 -100.5 242.5C-130.5 223.5 -155.4 206.7 -187.8 187.8C-220.2 168.9 -260.1 147.9 -280.6 116.2C-301.2 84.6 -302.5 42.3 -303.7 0L0 0Z" fill="#8d456f"></path><path d="M0 243C-28.2 226.1 -56.3 209.2 -80.4 194C-104.4 178.8 -124.4 165.4 -150.3 150.3C-176.2 135.1 -208.1 118.3 -224.5 93C-241 67.7 -242 33.8 -243 0L0 0Z" fill="#c0546c"></path><path d="M0 182.3C-21.1 169.6 -42.2 156.9 -60.3 145.5C-78.3 134.1 -93.3 124 -112.7 112.7C-132.1 101.3 -156 88.7 -168.4 69.7C-180.7 50.8 -181.5 25.4 -182.2 0L0 0Z" fill="#e76f5d"></path><path d="M0 121.5C-14.1 113 -28.2 104.6 -40.2 97C-52.2 89.4 -62.2 82.7 -75.1 75.1C-88.1 67.6 -104 59.2 -112.3 46.5C-120.5 33.8 -121 16.9 -121.5 0L0 0Z" fill="#fa9747"></path><path d="M0 60.8C-7 56.5 -14.1 52.3 -20.1 48.5C-26.1 44.7 -31.1 41.3 -37.6 37.6C-44 33.8 -52 29.6 -56.1 23.2C-60.2 16.9 -60.5 8.5 -60.7 0L0 0Z" fill="#fbae3c"></path></g><g transform="translate(0, 960)"><path d="M0 -486C56.9 -462.8 113.8 -439.5 173.7 -419.4C233.7 -399.4 296.7 -382.4 343.7 -343.7C390.6 -304.9 421.5 -244.2 442.5 -183.3C463.6 -122.4 474.8 -61.2 486 0L0 0Z" fill="#0e1925"></path><path d="M0 -425.2C49.8 -404.9 99.6 -384.6 152 -367C204.5 -349.4 259.6 -334.6 300.7 -300.7C341.8 -266.8 368.8 -213.7 387.2 -160.4C405.6 -107.1 415.4 -53.5 425.3 0L0 0Z" fill="#2a2b47"></path><path d="M0 -364.5C42.7 -347.1 85.3 -329.6 130.3 -314.6C175.3 -299.5 222.5 -286.8 257.7 -257.7C293 -228.7 316.1 -183.2 331.9 -137.5C347.7 -91.8 356.1 -45.9 364.5 0L0 0Z" fill="#583a62"></path><path d="M0 -303.7C35.6 -289.2 71.1 -274.7 108.6 -262.2C146.1 -249.6 185.4 -239 214.8 -214.8C244.1 -190.5 263.4 -152.6 276.6 -114.6C289.7 -76.5 296.7 -38.2 303.8 0L0 0Z" fill="#8d456f"></path><path d="M0 -243C28.4 -231.4 56.9 -219.8 86.9 -209.7C116.8 -199.7 148.4 -191.2 171.8 -171.8C195.3 -152.4 210.7 -122.1 221.3 -91.7C231.8 -61.2 237.4 -30.6 243 0L0 0Z" fill="#c0546c"></path><path d="M0 -182.2C21.3 -173.5 42.7 -164.8 65.2 -157.3C87.6 -149.8 111.3 -143.4 128.9 -128.9C146.5 -114.3 158.1 -91.6 166 -68.7C173.8 -45.9 178 -22.9 182.3 0L0 0Z" fill="#e76f5d"></path><path d="M0 -121.5C14.2 -115.7 28.4 -109.9 43.4 -104.9C58.4 -99.8 74.2 -95.6 85.9 -85.9C97.7 -76.2 105.4 -61.1 110.6 -45.8C115.9 -30.6 118.7 -15.3 121.5 0L0 0Z" fill="#fa9747"></path><path d="M0 -60.7C7.1 -57.8 14.2 -54.9 21.7 -52.4C29.2 -49.9 37.1 -47.8 43 -43C48.8 -38.1 52.7 -30.5 55.3 -22.9C57.9 -15.3 59.3 -7.6 60.8 0L0 0Z" fill="#fbae3c"></path></g></svg>